# xmcd CD database file
#
# Track frame offsets:
#	150
#	26405
#	40635
#	55787
#	69577
#	94347
#	109035
#	125155
#	146717
#	161517
#
# Disc length: 2268 seconds
#
# Revision: 0
# Processed by: cddbd v1.4PL0 Copyright (c) Steve Scherf et al.
# Submitted via: CDex 1.40Release
#
DISCID=8708da0a
DTITLE=Mike Frost and the iceman - Coming Home
DYEAR=1999
DGENRE=Blues
TTITLE0=Coming home
TTITLE1=Frosty man blues
TTITLE2=Little rat
TTITLE3=Tell me mamma
TTITLE4=Lies
TTITLE5=I was a gonna
TTITLE6=Slim St.
TTITLE7=Jammin' with Jeff
TTITLE8=Time is marching
TTITLE9=A traded life
EXTD=YEAR: 1999 ID3G: 0
EXTT0=
EXTT1=
EXTT2=
EXTT3=
EXTT4=
EXTT5=
EXTT6=
EXTT7=
EXTT8=
EXTT9=
PLAYORDER=
